<svg xmlns="http://www.w3.org/2000/svg" viewBox="0 0 156.38 30.76"><defs><style>.cls-1{fill:#e14658;}</style></defs><title>黒</title><g id="レイヤー_2" data-name="レイヤー 2"><g id="レイヤー_1-2" data-name="レイヤー 1"><path d="M12.69,24.92a.49.49,0,0,0-.33-.23.45.45,0,0,0-.39.09,6,6,0,0,1-1.32.61,5.88,5.88,0,0,1-3.25.18,2.36,2.36,0,0,1-1-.46,2.24,2.24,0,0,1-.63-.86,4,4,0,0,1-.24-1.51V14.32h7.18a.51.51,0,0,0,.45-.28,8.34,8.34,0,0,0,.34-.88,4.31,4.31,0,0,0,.23-1.42,2.59,2.59,0,0,0-.69-1.93,3,3,0,0,0-2.21-.69H5.56V4.38a.48.48,0,0,0-.32-.46c-.14-.06-.42-.15-.86-.28a5.4,5.4,0,0,0-1.48-.2,3.25,3.25,0,0,0-2.07.61,2.41,2.41,0,0,0-.83,2v17.6a7,7,0,0,0,1.94,5.13,7.69,7.69,0,0,0,5.68,2A11.72,11.72,0,0,0,10,30.53,13.09,13.09,0,0,0,12,30a9.13,9.13,0,0,0,1.5-.73,11,11,0,0,0,.94-.62.5.5,0,0,0,.13-.66Z"/><path d="M56.72,9.3a10.78,10.78,0,0,0-4.3-.74,9.54,9.54,0,0,0-6.59,2.15,7.75,7.75,0,0,0-2.43,6.07V29.7a.5.5,0,0,0,.5.5h4.56a.5.5,0,0,0,.5-.5V18.1c0-3,1.33-4.46,4.18-4.46a8.14,8.14,0,0,1,2.14.26,10.87,10.87,0,0,1,1.61.57.51.51,0,0,0,.49,0,3.13,3.13,0,0,0,.77-1,3.09,3.09,0,0,0,.45-1.58A2.77,2.77,0,0,0,56.72,9.3Z"/><path d="M81.84,9.6c-.14-.06-.42-.15-.84-.28a5.34,5.34,0,0,0-1.5-.2,3.25,3.25,0,0,0-2.07.61,2.41,2.41,0,0,0-.83,2v8.84a5.58,5.58,0,0,1-1.15,3.81,4.59,4.59,0,0,1-3.55,1.25,4.57,4.57,0,0,1-3.55-1.25,5.58,5.58,0,0,1-1.15-3.81V10.06a.5.5,0,0,0-.32-.46c-.14-.06-.42-.15-.84-.28a5.15,5.15,0,0,0-1.46-.2,3.31,3.31,0,0,0-2.11.61,2.41,2.41,0,0,0-.83,2v9.84a9.56,9.56,0,0,0,.76,3.86,8.36,8.36,0,0,0,2.13,2.92,9.37,9.37,0,0,0,3.26,1.8,14.38,14.38,0,0,0,8.22,0,9.48,9.48,0,0,0,3.28-1.8,8.08,8.08,0,0,0,2.13-2.92,9.73,9.73,0,0,0,.74-3.86V10.06A.5.5,0,0,0,81.84,9.6Z"/><path d="M119.43,13.17a7.46,7.46,0,0,0-2-2.58,8.31,8.31,0,0,0-2.94-1.53,12.54,12.54,0,0,0-3.58-.5,10.61,10.61,0,0,0-4.58,1,7.86,7.86,0,0,0-2.86,2.31,7.85,7.85,0,0,0-2.91-2.31,10.89,10.89,0,0,0-4.65-1,12.39,12.39,0,0,0-3.63.52,8.93,8.93,0,0,0-3,1.55,7.27,7.27,0,0,0-2,2.58,8.19,8.19,0,0,0-.73,3.57V29.7a.5.5,0,0,0,.5.5H91.7a.5.5,0,0,0,.5-.5V18.34a4.83,4.83,0,0,1,1.12-3.6,4.7,4.7,0,0,1,6.09.12,5.26,5.26,0,0,1,1.23,3.92V29.7a.5.5,0,0,0,.5.5h4.56a.5.5,0,0,0,.5-.5V18.78a5.3,5.3,0,0,1,1.22-3.92,4.26,4.26,0,0,1,3.08-1.18,4.14,4.14,0,0,1,3,1,4.85,4.85,0,0,1,1.09,3.58V29.7a.5.5,0,0,0,.5.5h4.56a.5.5,0,0,0,.5-.5v-13A8.33,8.33,0,0,0,119.43,13.17Z"/><path d="M135.57,7.85a11.22,11.22,0,1,0,11.21,11.21A11.21,11.21,0,0,0,135.57,7.85Zm0,17.61a6.4,6.4,0,1,1,6.4-6.4A6.4,6.4,0,0,1,135.57,25.46Z"/><path d="M28.05,8.24A11.21,11.21,0,1,0,39.26,19.45,11.21,11.21,0,0,0,28.05,8.24Zm0,17.61a6.4,6.4,0,1,1,6.39-6.4A6.4,6.4,0,0,1,28.05,25.85Z"/><path d="M146,3.27h-1.72V.83a.83.83,0,0,0-.83-.83H130a.83.83,0,0,0-.82.83v3a.83.83,0,0,0,.82.83h13.38V7.43a.52.52,0,0,0,.52.53H146a6,6,0,0,1,5.9,6.13V29.73a.52.52,0,0,0,.52.53h3.47a.52.52,0,0,0,.52-.53V14.09A10.63,10.63,0,0,0,146,3.27Z"/><circle class="cls-1" cx="135.59" cy="18.88" r="3.13"/><circle class="cls-1" cx="28.05" cy="19.38" r="3.13"/></g></g></svg>